<svg width="20" height="20" viewBox="0 0 20 20" fill="none" xmlns="http://www.w3.org/2000/svg">
<path d="M9.60417 11.6042L6.64583 8.64583C6.60417 8.60417 6.56944 8.5625 6.54167 8.52083C6.52778 8.46528 6.52083 8.40972 6.52083 8.35417C6.52083 8.25694 6.55556 8.17361 6.625 8.10417C6.69444 8.03472 6.78472 8 6.89583 8H13.1042C13.2153 8 13.3056 8.04167 13.375 8.125C13.4444 8.19444 13.4792 8.27778 13.4792 8.375C13.4792 8.38889 13.4375 8.47917 13.3542 8.64583L10.3958 11.6042C10.3403 11.6597 10.2778 11.7014 10.2083 11.7292C10.1389 11.7569 10.0694 11.7708 10 11.7708C9.93056 11.7708 9.86111 11.7569 9.79167 11.7292C9.72222 11.7014 9.65972 11.6597 9.60417 11.6042Z" fill="#464240"/>
</svg>
