<svg width="20" height="20" viewBox="0 0 20 20" fill="none" xmlns="http://www.w3.org/2000/svg">
<path d="M4.5 18C4.08333 18 3.72917 17.8542 3.4375 17.5625C3.14583 17.2569 3 16.9028 3 16.5V5.5C3 5.09722 3.14583 4.75 3.4375 4.45833C3.72917 4.15278 4.08333 4 4.5 4H6V2.75C6 2.54167 6.06944 2.36805 6.20833 2.22917C6.36111 2.07639 6.54167 2 6.75 2C6.95833 2 7.13194 2.07639 7.27083 2.22917C7.42361 2.36805 7.5 2.54167 7.5 2.75V4H12.5V2.75C12.5 2.54167 12.5694 2.36805 12.7083 2.22917C12.8611 2.07639 13.0417 2 13.25 2C13.4583 2 13.6319 2.07639 13.7708 2.22917C13.9236 2.36805 14 2.54167 14 2.75V4H15.5C15.9167 4 16.2708 4.15278 16.5625 4.45833C16.8542 4.75 17 5.09722 17 5.5V16.5C17 16.9028 16.8542 17.2569 16.5625 17.5625C16.2708 17.8542 15.9167 18 15.5 18H4.5ZM4.5 16.5H15.5V9H4.5V16.5ZM4.5 7.5H15.5V5.5H4.5V7.5ZM4.5 7.5V5.5V7.5Z" fill="#464240"/>
</svg>
