<svg width="36" height="36" viewBox="0 0 36 36" fill="none" xmlns="http://www.w3.org/2000/svg">
<path d="M5.775 22.2C4.575 22.2 3.5625 21.7875 2.7375 20.9625C1.9125 20.1375 1.5 19.125 1.5 17.925C1.5 16.75 1.9125 15.75 2.7375 14.925C3.5625 14.1 4.575 13.6875 5.775 13.6875V9.8625C5.775 9.1625 6.025 8.55 6.525 8.025C7.05 7.5 7.675 7.2375 8.4 7.2375H13.7625C13.7625 6.0625 14.175 5.0625 15 4.2375C15.825 3.4125 16.825 3 18 3C19.175 3 20.175 3.4125 21 4.2375C21.85 5.0625 22.275 6.0625 22.275 7.2375H27.6375C28.3375 7.2375 28.95 7.5 29.475 8.025C30 8.55 30.2625 9.1625 30.2625 9.8625V13.6875C31.4375 13.6875 32.4375 14.1 33.2625 14.925C34.0875 15.75 34.5 16.75 34.5 17.925C34.5 19.125 34.0875 20.1375 33.2625 20.9625C32.4375 21.7875 31.4375 22.2 30.2625 22.2V28.875C30.2625 29.575 30 30.1875 29.475 30.7125C28.95 31.2375 28.3375 31.5 27.6375 31.5H8.4C7.675 31.5 7.05 31.2375 6.525 30.7125C6.025 30.1875 5.775 29.575 5.775 28.875V22.2ZM13.2 18.825C13.725 18.825 14.1625 18.65 14.5125 18.3C14.8875 17.925 15.075 17.475 15.075 16.95C15.075 16.425 14.8875 15.9875 14.5125 15.6375C14.1375 15.2625 13.6875 15.075 13.1625 15.075C12.6625 15.075 12.225 15.2625 11.85 15.6375C11.5 15.9875 11.325 16.425 11.325 16.95C11.325 17.475 11.5 17.925 11.85 18.3C12.225 18.65 12.675 18.825 13.2 18.825ZM22.8375 18.825C23.3625 18.825 23.8 18.65 24.15 18.3C24.525 17.925 24.7125 17.475 24.7125 16.95C24.7125 16.425 24.525 15.9875 24.15 15.6375C23.775 15.2625 23.325 15.075 22.8 15.075C22.3 15.075 21.8625 15.2625 21.4875 15.6375C21.1375 15.9875 20.9625 16.425 20.9625 16.95C20.9625 17.475 21.1375 17.925 21.4875 18.3C21.8625 18.65 22.3125 18.825 22.8375 18.825ZM13.1625 25.3875H22.8375C23.2125 25.3875 23.525 25.2625 23.775 25.0125C24.025 24.7625 24.15 24.45 24.15 24.075C24.15 23.7 24.025 23.3875 23.775 23.1375C23.525 22.8875 23.2125 22.7625 22.8375 22.7625H13.1625C12.7875 22.7625 12.475 22.9 12.225 23.175C11.975 23.425 11.85 23.7375 11.85 24.1125C11.85 24.4625 11.975 24.7625 12.225 25.0125C12.475 25.2625 12.7875 25.3875 13.1625 25.3875ZM8.4 28.875H27.6375V9.8625H8.4V28.875Z" fill="#7753DF"/>
</svg>
