<svg width="20" height="20" viewBox="0 0 20 20" fill="none" xmlns="http://www.w3.org/2000/svg">
<path d="M10.875 10L7.45833 6.58333C7.30556 6.43056 7.22917 6.25694 7.22917 6.0625C7.22917 5.85417 7.30556 5.67361 7.45833 5.52083C7.61111 5.36805 7.78472 5.29167 7.97917 5.29167C8.1875 5.29167 8.36806 5.36805 8.52083 5.52083L12.4792 9.47917C12.5486 9.54861 12.5972 9.63194 12.625 9.72917C12.6667 9.8125 12.6875 9.90278 12.6875 10C12.6875 10.0972 12.6667 10.1944 12.625 10.2917C12.5972 10.375 12.5486 10.4514 12.4792 10.5208L8.52083 14.4792C8.36806 14.6319 8.19444 14.7083 8 14.7083C7.80556 14.6944 7.63194 14.6111 7.47917 14.4583C7.32639 14.3056 7.25 14.1319 7.25 13.9375C7.25 13.7292 7.32639 13.5486 7.47917 13.3958L10.875 10Z" fill="#464240"/>
</svg>
