<svg width="20" height="20" viewBox="0 0 20 20" fill="none" xmlns="http://www.w3.org/2000/svg">
<path d="M10 16.4583C9.81944 16.4583 9.63889 16.4306 9.45833 16.375C9.29167 16.3056 9.13195 16.2014 8.97917 16.0625L7.75 14.9375C6.23611 13.5903 4.89583 12.2778 3.72917 11C2.57639 9.70833 2 8.30556 2 6.79167C2 5.56944 2.41667 4.54861 3.25 3.72917C4.08333 2.90972 5.11806 2.5 6.35417 2.5C7.0625 2.5 7.72917 2.65278 8.35417 2.95833C8.99306 3.25 9.54167 3.67361 10 4.22917C10.4861 3.67361 11.0347 3.25 11.6458 2.95833C12.2708 2.65278 12.9375 2.5 13.6458 2.5C14.8819 2.5 15.9167 2.90972 16.75 3.72917C17.5833 4.54861 18 5.56944 18 6.79167C18 8.30556 17.4167 9.70833 16.25 11C15.0972 12.2778 13.7639 13.5903 12.25 14.9375L11.0208 16.0625C10.8681 16.2014 10.7014 16.3056 10.5208 16.375C10.3542 16.4306 10.1806 16.4583 10 16.4583ZM9.29167 5.79167C8.95833 5.22222 8.54167 4.78472 8.04167 4.47917C7.54167 4.15972 6.97917 4 6.35417 4C5.53472 4 4.85417 4.26389 4.3125 4.79167C3.77083 5.31944 3.5 5.98611 3.5 6.79167C3.5 7.5 3.75 8.24305 4.25 9.02083C4.75 9.79861 5.34722 10.5625 6.04167 11.3125C6.73611 12.0486 7.45139 12.7361 8.1875 13.375C8.92361 14.0139 9.52778 14.5417 10 14.9583C10.4722 14.5417 11.0764 14.0139 11.8125 13.375C12.5486 12.7361 13.2639 12.0486 13.9583 11.3125C14.6528 10.5625 15.25 9.79861 15.75 9.02083C16.25 8.24305 16.5 7.5 16.5 6.79167C16.5 5.98611 16.2292 5.31944 15.6875 4.79167C15.1458 4.26389 14.4653 4 13.6458 4C13.0208 4 12.4514 4.15972 11.9375 4.47917C11.4375 4.78472 11.0208 5.22222 10.6875 5.79167C10.6181 5.93055 10.5208 6.03472 10.3958 6.10417C10.2708 6.15972 10.1389 6.1875 10 6.1875C9.86111 6.1875 9.72222 6.15972 9.58333 6.10417C9.45833 6.03472 9.36111 5.93055 9.29167 5.79167Z" fill="#464240"/>
</svg>
