<svg width="20" height="20" viewBox="0 0 20 20" fill="none" xmlns="http://www.w3.org/2000/svg">
<path d="M10 17C8.16667 17 6.59028 16.3958 5.27083 15.1875C3.96528 13.9653 3.22222 12.4653 3.04167 10.6875C3.01389 10.4931 3.06944 10.3333 3.20833 10.2083C3.36111 10.0694 3.54167 10 3.75 10C3.94444 10 4.11806 10.0556 4.27083 10.1667C4.42361 10.2778 4.51389 10.4306 4.54167 10.625C4.69444 12 5.28472 13.1597 6.3125 14.1042C7.35417 15.0347 8.58333 15.5 10 15.5C11.5139 15.5 12.8056 14.9653 13.875 13.8958C14.9583 12.8125 15.5 11.5139 15.5 10C15.5 8.48611 14.9583 7.19444 13.875 6.125C12.8056 5.04167 11.5139 4.5 10 4.5C9.13889 4.5 8.34028 4.68055 7.60417 5.04167C6.88194 5.38889 6.27083 5.875 5.77083 6.5H7.25C7.45833 6.5 7.63194 6.57639 7.77083 6.72917C7.92361 6.86805 8 7.04167 8 7.25C8 7.45833 7.92361 7.63889 7.77083 7.79167C7.63194 7.93055 7.45833 8 7.25 8H3.75C3.54167 8 3.36111 7.93055 3.20833 7.79167C3.06944 7.63889 3 7.45833 3 7.25V3.75C3 3.54167 3.06944 3.36805 3.20833 3.22917C3.36111 3.07639 3.54167 3 3.75 3C3.95833 3 4.13194 3.07639 4.27083 3.22917C4.42361 3.36805 4.5 3.54167 4.5 3.75V5.70833C5.13889 4.875 5.93056 4.21528 6.875 3.72917C7.83333 3.24305 8.875 3 10 3C10.9722 3 11.8819 3.1875 12.7292 3.5625C13.5764 3.92361 14.3125 4.42361 14.9375 5.0625C15.5764 5.6875 16.0764 6.42361 16.4375 7.27083C16.8125 8.11806 17 9.02778 17 10C17 10.9722 16.8125 11.8819 16.4375 12.7292C16.0764 13.5764 15.5764 14.3194 14.9375 14.9583C14.3125 15.5833 13.5764 16.0833 12.7292 16.4583C11.8819 16.8194 10.9722 17 10 17ZM10.75 9.375L12.625 11.25C12.7778 11.4028 12.8472 11.5764 12.8333 11.7708C12.8333 11.9653 12.7569 12.1389 12.6042 12.2917C12.4514 12.4444 12.2708 12.5208 12.0625 12.5208C11.8681 12.5208 11.6944 12.4444 11.5417 12.2917L9.47917 10.2292C9.40972 10.1597 9.35417 10.0833 9.3125 10C9.27083 9.90278 9.25 9.79861 9.25 9.6875V6.75C9.25 6.54167 9.31945 6.36805 9.45833 6.22917C9.61111 6.07639 9.79167 6 10 6C10.2083 6 10.3819 6.07639 10.5208 6.22917C10.6736 6.36805 10.75 6.54167 10.75 6.75V9.375Z" fill="#464240"/>
</svg>
