<svg width="18" height="18" viewBox="0 0 18 18" fill="none" xmlns="http://www.w3.org/2000/svg">
<path d="M9 14.4187C10.4875 13.0812 11.6063 11.85 12.3563 10.725C13.1188 9.6 13.5 8.59375 13.5 7.70625C13.5 6.39375 13.0688 5.30625 12.2063 4.44375C11.3563 3.58125 10.2875 3.15 9 3.15C7.7125 3.15 6.6375 3.58125 5.775 4.44375C4.925 5.30625 4.5 6.39375 4.5 7.70625C4.5 8.59375 4.875 9.6 5.625 10.725C6.3875 11.85 7.5125 13.0812 9 14.4187ZM9 15.7687C8.8375 15.7687 8.68125 15.7437 8.53125 15.6937C8.39375 15.6312 8.25625 15.5437 8.11875 15.4312C7.61875 14.9937 7.075 14.4812 6.4875 13.8937C5.9125 13.3062 5.375 12.675 4.875 12C4.375 11.325 3.9625 10.625 3.6375 9.9C3.3125 9.1625 3.15 8.43125 3.15 7.70625C3.15 6.03125 3.70625 4.63125 4.81875 3.50625C5.93125 2.36875 7.325 1.8 9 1.8C10.6625 1.8 12.05 2.36875 13.1625 3.50625C14.2875 4.63125 14.85 6.03125 14.85 7.70625C14.85 8.43125 14.6813 9.1625 14.3438 9.9C14.0188 10.6375 13.6063 11.3437 13.1063 12.0187C12.6188 12.6937 12.0813 13.325 11.4938 13.9125C10.9188 14.4875 10.3813 14.9937 9.88125 15.4312C9.74375 15.5437 9.6 15.6312 9.45 15.6937C9.3125 15.7437 9.1625 15.7687 9 15.7687ZM9 9C9.375 9 9.69375 8.86875 9.95625 8.60625C10.2188 8.34375 10.35 8.025 10.35 7.65C10.35 7.275 10.2188 6.95625 9.95625 6.69375C9.69375 6.43125 9.375 6.3 9 6.3C8.625 6.3 8.30625 6.43125 8.04375 6.69375C7.78125 6.95625 7.65 7.275 7.65 7.65C7.65 8.025 7.78125 8.34375 8.04375 8.60625C8.30625 8.86875 8.625 9 9 9Z" fill="#BC4C00"/>
</svg>
