<svg width="20" height="20" viewBox="0 0 20 20" fill="none" xmlns="http://www.w3.org/2000/svg">
<path d="M10 16.0208C11.6528 14.5347 12.8958 13.1667 13.7292 11.9167C14.5764 10.6667 15 9.54861 15 8.5625C15 7.10417 14.5208 5.89583 13.5625 4.9375C12.6181 3.97917 11.4306 3.5 10 3.5C8.56944 3.5 7.375 3.97917 6.41667 4.9375C5.47222 5.89583 5 7.10417 5 8.5625C5 9.54861 5.41667 10.6667 6.25 11.9167C7.09722 13.1667 8.34722 14.5347 10 16.0208ZM10 17.5208C9.81944 17.5208 9.64583 17.4931 9.47917 17.4375C9.32639 17.3681 9.17361 17.2708 9.02083 17.1458C8.46528 16.6597 7.86111 16.0903 7.20833 15.4375C6.56944 14.7847 5.97222 14.0833 5.41667 13.3333C4.86111 12.5833 4.40278 11.8056 4.04167 11C3.68056 10.1806 3.5 9.36806 3.5 8.5625C3.5 6.70139 4.11806 5.14583 5.35417 3.89583C6.59028 2.63194 8.13889 2 10 2C11.8472 2 13.3889 2.63194 14.625 3.89583C15.875 5.14583 16.5 6.70139 16.5 8.5625C16.5 9.36806 16.3125 10.1806 15.9375 11C15.5764 11.8194 15.1181 12.6042 14.5625 13.3542C14.0208 14.1042 13.4236 14.8056 12.7708 15.4583C12.1319 16.0972 11.5347 16.6597 10.9792 17.1458C10.8264 17.2708 10.6667 17.3681 10.5 17.4375C10.3472 17.4931 10.1806 17.5208 10 17.5208ZM10 10C10.4167 10 10.7708 9.85417 11.0625 9.5625C11.3542 9.27083 11.5 8.91667 11.5 8.5C11.5 8.08333 11.3542 7.72917 11.0625 7.4375C10.7708 7.14583 10.4167 7 10 7C9.58333 7 9.22917 7.14583 8.9375 7.4375C8.64583 7.72917 8.5 8.08333 8.5 8.5C8.5 8.91667 8.64583 9.27083 8.9375 9.5625C9.22917 9.85417 9.58333 10 10 10Z" fill="#464240"/>
</svg>
