<svg width="16" height="16" viewBox="0 0 16 16" fill="none" xmlns="http://www.w3.org/2000/svg">
<g clip-path="url(#clip0_5038_7037)">
<path d="M4.5836 0.0547189C3.75113 0.0939952 3.18264 0.226846 2.68567 0.422132C2.17132 0.622582 1.73537 0.89157 1.30161 1.32689C0.867846 1.76222 0.600736 2.19848 0.401695 2.71361C0.209069 3.21169 0.0785653 3.78065 0.0417926 4.61358C0.00502003 5.44652 -0.0031169 5.71426 0.000951562 7.83893C0.00502002 9.96361 0.0144088 10.2299 0.0547804 11.0646C0.0945261 11.8969 0.226908 12.4652 0.422194 12.9624C0.622956 13.4767 0.891631 13.9125 1.32711 14.3464C1.76259 14.7804 2.19855 15.0468 2.71493 15.2462C3.21253 15.4385 3.78165 15.5696 4.61443 15.6061C5.44721 15.6426 5.71526 15.651 7.83931 15.6469C9.96336 15.6429 10.2308 15.6335 11.0653 15.5939C11.8998 15.5543 12.4651 15.421 12.9624 15.2266C13.4768 15.0254 13.9129 14.7572 14.3465 14.3216C14.7801 13.8859 15.0471 13.4493 15.2459 12.9339C15.4387 12.4363 15.5697 11.8672 15.6058 11.035C15.6423 10.1999 15.6509 9.93325 15.6468 7.80889C15.6428 5.68453 15.6332 5.4182 15.5936 4.58385C15.554 3.74951 15.4215 3.18289 15.2264 2.68545C15.0253 2.1711 14.7569 1.73562 14.3216 1.30139C13.8863 0.867159 13.4494 0.600362 12.9341 0.401946C12.4362 0.20932 11.8674 0.0780343 11.0346 0.0420441C10.2018 0.00605388 9.93378 -0.0031784 7.80895 0.000890063C5.68412 0.00495852 5.41811 0.0140343 4.5836 0.0547189ZM4.67499 14.1986C3.91215 14.1654 3.49795 14.0386 3.22192 13.9325C2.85638 13.7917 2.596 13.6215 2.32091 13.349C2.04582 13.0766 1.87682 12.8153 1.73412 12.4505C1.62693 12.1745 1.49783 11.7608 1.46215 10.9979C1.42335 10.1734 1.41521 9.9259 1.41067 7.83706C1.40613 5.74821 1.41412 5.50098 1.45026 4.67618C1.48281 3.91397 1.61034 3.4993 1.71628 3.22342C1.85711 2.85742 2.02673 2.59751 2.29979 2.32257C2.57284 2.04764 2.83338 1.87833 3.19845 1.73562C3.47416 1.62796 3.8879 1.49996 4.65042 1.46366C5.47553 1.42454 5.72277 1.41671 7.8113 1.41218C9.89983 1.40764 10.1477 1.41546 10.9731 1.45177C11.7353 1.48494 12.1502 1.61122 12.4257 1.71778C12.7914 1.85861 13.0516 2.02777 13.3266 2.30129C13.6015 2.57482 13.771 2.83442 13.9137 3.20026C14.0215 3.4752 14.1495 3.88877 14.1855 4.65176C14.2248 5.47688 14.2337 5.72427 14.2374 7.81264C14.2412 9.90102 14.2338 10.149 14.1977 10.9735C14.1644 11.7364 14.0379 12.1507 13.9317 12.4271C13.7908 12.7924 13.6211 13.053 13.3478 13.3278C13.0746 13.6025 12.8144 13.7718 12.4492 13.9146C12.1738 14.0221 11.7596 14.1504 10.9977 14.1867C10.1726 14.2255 9.92533 14.2336 7.83602 14.2381C5.74671 14.2427 5.50026 14.2342 4.67514 14.1986M11.0532 3.64232C11.0535 3.82802 11.1089 4.00946 11.2124 4.1637C11.3158 4.31793 11.4626 4.43802 11.6343 4.50879C11.806 4.57955 11.9949 4.59781 12.1769 4.56126C12.359 4.5247 12.5261 4.43497 12.6572 4.30342C12.7883 4.17186 12.8774 4.00439 12.9133 3.82219C12.9492 3.63999 12.9302 3.45123 12.8588 3.2798C12.7874 3.10837 12.6668 2.96196 12.5122 2.85909C12.3576 2.75622 12.1759 2.70151 11.9902 2.70188C11.7413 2.70238 11.5027 2.80173 11.327 2.97808C11.1513 3.15444 11.0528 3.39337 11.0532 3.64232ZM3.80668 7.83174C3.81106 10.0506 5.61308 11.8453 7.83148 11.841C10.0499 11.8368 11.8458 10.035 11.8416 7.81609C11.8374 5.59721 10.0349 3.80208 7.81615 3.80646C5.59743 3.81085 3.80246 5.61317 3.80668 7.83174ZM5.21593 7.82892C5.21491 7.3131 5.36688 6.80856 5.6526 6.3791C5.93833 5.94965 6.34498 5.61456 6.82115 5.41623C7.29731 5.21789 7.8216 5.1652 8.32771 5.26483C8.83381 5.36446 9.29901 5.61193 9.66448 5.97595C10.0299 6.33997 10.2792 6.80418 10.3809 7.30989C10.4825 7.8156 10.4319 8.34009 10.2355 8.81704C10.039 9.29398 9.70553 9.70197 9.27721 9.98939C8.84889 10.2768 8.34496 10.4308 7.82914 10.4318C7.48663 10.4325 7.14734 10.3658 6.83064 10.2353C6.51394 10.1049 6.22604 9.91337 5.98337 9.67166C5.7407 9.42995 5.54803 9.14281 5.41635 8.82663C5.28467 8.51045 5.21657 8.17142 5.21593 7.82892Z" fill="white"/>
</g>
<defs>
<clipPath id="clip0_5038_7037">
<rect width="15.6479" height="15.6479" fill="white"/>
</clipPath>
</defs>
</svg>
