<svg width="18" height="18" viewBox="0 0 18 18" fill="none" xmlns="http://www.w3.org/2000/svg">
<path d="M7.125 15C8.7875 15 10.2031 14.4156 11.3719 13.2469C12.5406 12.0781 13.125 10.6625 13.125 9C13.125 7.3375 12.5406 5.92188 11.3719 4.75313C10.2031 3.58438 8.7875 3 7.125 3H6.73125C6.60625 3 6.4875 3.0125 6.375 3.0375C7.0875 3.8625 7.64062 4.78438 8.03438 5.80313C8.42813 6.82188 8.625 7.8875 8.625 9C8.625 10.1125 8.42813 11.1781 8.03438 12.1969C7.64062 13.2156 7.0875 14.1375 6.375 14.9625C6.4875 14.9875 6.60625 15 6.73125 15H7.125ZM7.125 16.5C6.4625 16.5 5.81563 16.4156 5.18438 16.2469C4.55313 16.0781 3.95 15.825 3.375 15.4875C4.5375 14.8125 5.45312 13.9 6.12188 12.75C6.79063 11.6 7.125 10.35 7.125 9C7.125 7.65 6.79063 6.4 6.12188 5.25C5.45312 4.1 4.5375 3.1875 3.375 2.5125C3.95 2.175 4.55313 1.92188 5.18438 1.75313C5.81563 1.58438 6.4625 1.5 7.125 1.5C8.1625 1.5 9.1375 1.69688 10.05 2.09063C10.9625 2.48438 11.7563 3.01875 12.4313 3.69375C13.1063 4.36875 13.6406 5.1625 14.0344 6.075C14.4281 6.9875 14.625 7.9625 14.625 9C14.625 10.0375 14.4281 11.0125 14.0344 11.925C13.6406 12.8375 13.1063 13.6313 12.4313 14.3063C11.7563 14.9813 10.9625 15.5156 10.05 15.9094C9.1375 16.3031 8.1625 16.5 7.125 16.5Z" fill="#BC4C00"/>
</svg>
