<svg width="28" height="28" viewBox="0 0 28 28" fill="none" xmlns="http://www.w3.org/2000/svg">
<path d="M23.275 24.7333C20.8444 24.7333 18.4333 24.1986 16.0417 23.1292C13.65 22.0403 11.4625 20.5139 9.47917 18.55C7.49583 16.5667 5.95972 14.3792 4.87083 11.9875C3.80139 9.57639 3.26667 7.15555 3.26667 4.725C3.26667 4.31667 3.40278 3.97639 3.675 3.70417C3.96667 3.4125 4.31667 3.26667 4.725 3.26667H9.33333C9.72222 3.26667 10.0431 3.38333 10.2958 3.61666C10.5681 3.83055 10.7431 4.1125 10.8208 4.4625L11.55 8.34167C11.6083 8.71111 11.5986 9.03194 11.5208 9.30416C11.4625 9.57639 11.3264 9.80972 11.1125 10.0042L8.225 12.8042C8.61389 13.5042 9.06111 14.175 9.56667 14.8167C10.0917 15.4583 10.675 16.0903 11.3167 16.7125C11.9 17.3153 12.5125 17.8694 13.1542 18.375C13.7958 18.8611 14.4667 19.3083 15.1667 19.7167L17.9667 16.9167C18.2 16.7028 18.4722 16.5472 18.7833 16.45C19.1139 16.3528 19.4444 16.3333 19.775 16.3917L23.5375 17.1792C23.9069 17.2764 24.1986 17.4514 24.4125 17.7042C24.6264 17.9569 24.7333 18.2681 24.7333 18.6375V23.275C24.7333 23.6833 24.5875 24.0333 24.2958 24.325C24.0236 24.5972 23.6833 24.7333 23.275 24.7333Z" fill="#E16F24"/>
</svg>
