<svg width="20" height="20" viewBox="0 0 20 20" fill="none" xmlns="http://www.w3.org/2000/svg">
<path d="M10.75 9.375V5.75C10.75 5.54167 10.6736 5.36805 10.5208 5.22917C10.3819 5.07639 10.2083 5 10 5C9.79167 5 9.61111 5.07639 9.45833 5.22917C9.31945 5.36805 9.25 5.54167 9.25 5.75V9.6875C9.25 9.79861 9.27083 9.90278 9.3125 10C9.35417 10.0833 9.40972 10.1597 9.47917 10.2292L12.2708 13.0208C12.4236 13.1736 12.5972 13.25 12.7917 13.25C13 13.2361 13.1806 13.1528 13.3333 13C13.4861 12.8472 13.5625 12.6736 13.5625 12.4792C13.5625 12.2708 13.4861 12.0903 13.3333 11.9375L10.75 9.375ZM10 18C8.90278 18 7.86806 17.7917 6.89583 17.375C5.92361 16.9583 5.06944 16.3889 4.33333 15.6667C3.61111 14.9306 3.04167 14.0764 2.625 13.1042C2.20833 12.1319 2 11.0972 2 10C2 8.88889 2.20833 7.84722 2.625 6.875C3.04167 5.90278 3.61111 5.05556 4.33333 4.33333C5.06944 3.61111 5.92361 3.04167 6.89583 2.625C7.86806 2.20833 8.90278 2 10 2C11.1111 2 12.1528 2.20833 13.125 2.625C14.0972 3.04167 14.9444 3.61111 15.6667 4.33333C16.3889 5.05556 16.9583 5.90278 17.375 6.875C17.7917 7.84722 18 8.88889 18 10C18 11.0972 17.7917 12.1319 17.375 13.1042C16.9583 14.0764 16.3889 14.9306 15.6667 15.6667C14.9444 16.3889 14.0972 16.9583 13.125 17.375C12.1528 17.7917 11.1111 18 10 18ZM10 16.5C11.8056 16.5 13.3403 15.8681 14.6042 14.6042C15.8681 13.3264 16.5 11.7917 16.5 10C16.5 8.19444 15.8681 6.65972 14.6042 5.39583C13.3403 4.13194 11.8056 3.5 10 3.5C8.20833 3.5 6.67361 4.13194 5.39583 5.39583C4.13194 6.65972 3.5 8.19444 3.5 10C3.5 11.7917 4.13194 13.3264 5.39583 14.6042C6.67361 15.8681 8.20833 16.5 10 16.5Z" fill="#464240"/>
</svg>
